<svg xmlns="http://www.w3.org/2000/svg" width="23.067" height="22.483" viewBox="0 0 23.067 22.483"><defs><style>.a{fill:#20c99f;}</style></defs><path class="a" d="M13.209,58.627,12.067,59.77a1.231,1.231,0,0,1-1.745,0l-10.008-10a1.23,1.23,0,0,1,0-1.745L10.321,38.013a1.23,1.23,0,0,1,1.745,0l1.143,1.143a1.237,1.237,0,0,1-.021,1.766l-6.2,5.91h14.8a1.233,1.233,0,0,1,1.236,1.236v1.647a1.233,1.233,0,0,1-1.236,1.236H6.985l6.2,5.91A1.228,1.228,0,0,1,13.209,58.627Z" transform="translate(0.05 -37.65)"/></svg>