<svg xmlns="http://www.w3.org/2000/svg" width="22.046" height="19.29" viewBox="0 0 22.046 19.29"><defs><style>.a{fill:#20c99f;}</style></defs><path class="a" d="M.787,63.543H21.259a.787.787,0,0,0,.787-.787V60.787A.787.787,0,0,0,21.259,60H.787A.787.787,0,0,0,0,60.787v1.968A.787.787,0,0,0,.787,63.543Zm0,7.874H21.259a.787.787,0,0,0,.787-.787V68.661a.787.787,0,0,0-.787-.787H.787A.787.787,0,0,0,0,68.661v1.968A.787.787,0,0,0,.787,71.417Zm0,7.874H21.259a.787.787,0,0,0,.787-.787V76.535a.787.787,0,0,0-.787-.787H.787A.787.787,0,0,0,0,76.535V78.5A.787.787,0,0,0,.787,79.29Z" transform="translate(0 -60)"/></svg>