<svg xmlns="http://www.w3.org/2000/svg" width="30.857" height="27" viewBox="0 0 30.857 27"><defs><style>.a{fill:#ffad29;}</style></defs><path class="a" d="M30.857,38.75V56.107A2.894,2.894,0,0,1,27.964,59H2.893A2.894,2.894,0,0,1,0,56.107V38.75a2.894,2.894,0,0,1,2.893-2.893H8.2l.741-1.983A2.889,2.889,0,0,1,11.644,32h7.563a2.889,2.889,0,0,1,2.706,1.874l.747,1.983h5.3A2.894,2.894,0,0,1,30.857,38.75Zm-8.2,8.678a7.232,7.232,0,1,0-7.232,7.232A7.238,7.238,0,0,0,22.66,47.428Zm-1.929,0a5.3,5.3,0,1,1-5.3-5.3A5.311,5.311,0,0,1,20.732,47.428Z" transform="translate(0 -32)"/></svg>