<svg xmlns="http://www.w3.org/2000/svg" width="24.671" height="16.447" viewBox="0 0 24.671 16.447"><defs><style>.a{fill:#20c99f;}</style></defs><path class="a" d="M24.522,71.6A13.738,13.738,0,0,0,12.336,64,13.74,13.74,0,0,0,.15,71.6a1.386,1.386,0,0,0,0,1.25,13.738,13.738,0,0,0,12.186,7.6,13.74,13.74,0,0,0,12.186-7.6,1.386,1.386,0,0,0,0-1.25ZM12.336,78.391A6.168,6.168,0,1,1,18.5,72.224,6.168,6.168,0,0,1,12.336,78.391Zm0-10.279a4.082,4.082,0,0,0-1.084.162A2.049,2.049,0,0,1,8.386,71.14a4.1,4.1,0,1,0,3.949-3.028Z" transform="translate(-0.001 -64)"/></svg>