<svg xmlns="http://www.w3.org/2000/svg" width="235.462" height="75.636" viewBox="0 0 235.462 75.636">
  <g id="logo_issho_full_white" transform="translate(-40 -33.235)">
    <path id="Union_12" data-name="Union 12" d="M136.121,53.669l.584-1.231a5.686,5.686,0,0,0,3.646,1.278c1.91,0,2.73-.742,2.73-1.7,0-2.7-6.692-.994-6.692-5.1,0-1.7,1.326-3.156,4.229-3.156a6.5,6.5,0,0,1,3.551.978L143.65,46a5.7,5.7,0,0,0-3.03-.9c-1.878,0-2.683.789-2.683,1.752,0,2.7,6.692,1.01,6.692,5.066,0,1.689-1.357,3.141-4.277,3.141A6.558,6.558,0,0,1,136.121,53.669Zm-13.762-4.261a5.875,5.875,0,1,1,5.887,5.65A5.615,5.615,0,0,1,122.359,49.408Zm1.578,0a4.293,4.293,0,1,0,4.308-4.245A4.156,4.156,0,0,0,123.938,49.408Zm-37.025.758V43.884h1.578V50.1c0,2.446,1.12,3.551,3.109,3.551s3.125-1.1,3.125-3.551V43.884h1.531v6.281c0,3.2-1.752,4.892-4.671,4.892C88.68,55.058,86.913,53.369,86.913,50.165ZM76.5,53.464l.915-1.073a2.755,2.755,0,0,0,2.3,1.31c1.247,0,1.894-.758,1.894-2.241v-6.2H77.617V43.884h5.555v7.5c0,2.462-1.2,3.677-3.456,3.677A3.851,3.851,0,0,1,76.5,53.464ZM0,53.669l.584-1.231A5.687,5.687,0,0,0,4.23,53.716c1.91,0,2.73-.742,2.73-1.7,0-2.7-6.692-.994-6.692-5.1,0-1.7,1.326-3.156,4.23-3.156a6.5,6.5,0,0,1,3.551.978L7.528,46a5.7,5.7,0,0,0-3.03-.9c-1.878,0-2.683.789-2.683,1.752,0,2.7,6.692,1.01,6.692,5.066,0,1.689-1.357,3.141-4.277,3.141A6.557,6.557,0,0,1,0,53.669Zm115.731,1.263V45.257h-3.788V43.884h9.138v1.373h-3.788v9.674Zm-7.418,0-6.629-8.238v8.238h-1.578V43.884H101.4l6.628,8.238V43.884h1.578V54.931Zm-46.068,0V43.884h7.8v1.373H63.823V48.65h5.54v1.341h-5.54v3.567h6.439v1.373Zm-4.7,0-2.383-3.393c-.221.016-.458.031-.695.031h-2.73v3.362H50.156V43.884h4.308c2.873,0,4.608,1.452,4.608,3.851a3.486,3.486,0,0,1-2.431,3.488l2.62,3.709Zm-5.808-4.7h2.683c2.02,0,3.078-.915,3.078-2.494s-1.057-2.478-3.078-2.478H51.734ZM38.3,54.931V43.884h4.309c2.872,0,4.608,1.452,4.608,3.851s-1.736,3.851-4.608,3.851h-2.73v3.346Zm1.578-4.719h2.683c2.02,0,3.078-.9,3.078-2.478s-1.057-2.478-3.078-2.478H39.882Zm-7.023,4.719-.016-8.049L28.85,53.59h-.726l-3.993-6.66v8H22.616V43.884H23.91l4.608,7.765,4.545-7.765h1.294l.016,11.048Zm-21.432,0V43.884h7.8v1.373H13V48.65h5.54v1.341H13v3.567h6.439v1.373Zm97.688-38.712c0-9.186,7.154-15.986,16.914-15.986,9.716,0,16.914,6.757,16.914,15.986s-7.2,15.986-16.914,15.986C116.269,32.205,109.115,25.4,109.115,16.219Zm7.242,0c0,5.874,4.151,9.892,9.671,9.892s9.672-4.019,9.672-9.892-4.151-9.892-9.672-9.892S116.357,10.345,116.357,16.219Zm-19.5,15.986V19.1H82.332V32.205h-7.4V.233h7.4V12.839H96.857V.233h7.4V32.205ZM43.076,28.834,46.1,22.323A21.4,21.4,0,0,0,56.97,25.346c4.186,0,5.755-1.1,5.755-2.848,0-5.116-18.893.116-18.893-12.382C43.832,4.186,49.18,0,58.307,0c4.3,0,9.069.988,12.033,2.732L67.317,9.185A17.961,17.961,0,0,0,58.307,6.86c-4.069,0-5.813,1.279-5.813,2.907,0,5.348,18.893.174,18.893,12.5,0,5.813-5.406,9.941-14.766,9.941C51.331,32.205,45.983,30.752,43.076,28.834Zm-29.764,0,3.023-6.511a21.4,21.4,0,0,0,10.871,3.023c4.186,0,5.755-1.1,5.755-2.848,0-5.116-18.893.116-18.893-12.382C14.068,4.186,19.416,0,28.543,0c4.3,0,9.069.988,12.033,2.732L37.554,9.185A17.962,17.962,0,0,0,28.543,6.86c-4.069,0-5.813,1.279-5.813,2.907,0,5.348,18.893.174,18.893,12.5,0,5.813-5.406,9.941-14.766,9.941C21.567,32.205,16.219,30.752,13.312,28.834ZM2.151,32.205V.116H9.607V32.205Z" transform="translate(130.334 42.868)" fill="#fff" stroke="rgba(0,0,0,0)" stroke-width="1"/>
    <g id="logo_issho" transform="translate(40 33.235)">
      <path id="Path_378" data-name="Path 378" d="M81.791-161.111c0-3.6-1.588-4.971-4.11-4.971s-4.109,1.369-4.109,4.971v2.9H65.8v-2.861c0-3.6-1.316-4.971-3.837-4.971s-3.9,1.369-3.9,4.971c0,7.091,7.265,8.428,11.846,13.162C74.489-152.677,81.791-154,81.791-161.111Z" transform="translate(-31.61 187.226)" fill="#fff"/>
      <path id="Path_379" data-name="Path 379" d="M40.987-206.9C22.456-206.9,7-191.984,7-173.453v8.724C7-146.2,22.456-131.26,40.987-131.26h8.724c18.53,0,32.925-14.938,32.925-33.469V-206.9ZM65.54-157.942c0,8.07-4.143,12.683-11.926,12.683a12.04,12.04,0,0,1-8.194-2.65c-1.957,1.751-4.834,2.685-8.324,2.685-7.783,0-11.965-4.612-11.965-12.682v-2.882h7.253v3.386c0,3.6,1.827,4.9,4.349,4.9s4.228-1.3,4.228-4.9c0-10.022-15.432-8.426-15.432-23.191,0-8.071,3.993-12.328,11.7-12.328a11.686,11.686,0,0,1,8.083,2.667,11.637,11.637,0,0,1,8.111-2.7c7.71,0,11.677,4.257,11.677,12.328,0,14.766-15.491,13.169-15.491,23.191,0,3.6,1.556,4.9,4.078,4.9s4.078-1.3,4.078-4.9v-3.351H65.54Z" transform="translate(-7 206.896)" fill="#fff"/>
    </g>
  </g>
</svg>
