<svg xmlns="http://www.w3.org/2000/svg" width="83.025" height="83.025" viewBox="0 0 83.025 83.025">
  <g id="logo_issho_white" transform="translate(-8 204.896)">
    <path id="Path_378" data-name="Path 378" d="M84.11-160.625c0-3.954-1.743-5.457-4.512-5.457s-4.511,1.5-4.511,5.457v3.179h-8.53v-3.14c0-3.954-1.444-5.457-4.212-5.457s-4.282,1.5-4.282,5.457c0,7.784,7.974,9.252,13,14.448C76.094-151.367,84.11-152.821,84.11-160.625Z" transform="translate(-22.025 -17.604)" fill="#fff"/>
    <path id="Path_379" data-name="Path 379" d="M44.308-206.9C23.966-206.9,7-190.527,7-170.186v9.576c0,20.341,16.966,36.739,37.308,36.739h9.576c20.341,0,36.142-16.4,36.142-36.739V-206.9ZM71.26-153.16c0,8.859-4.548,13.922-13.091,13.922-3.806,0-6.849-1.011-8.994-2.909-2.148,1.922-5.307,2.947-9.137,2.947-8.543,0-13.135-5.063-13.135-13.922v-3.163h7.961v3.717c0,3.955,2.005,5.378,4.773,5.378s4.641-1.423,4.641-5.378c0-11-16.94-9.249-16.94-25.457,0-8.86,4.383-13.533,12.847-13.533,3.783,0,6.755,1.018,8.873,2.927,2.121-1.933,5.1-2.966,8.9-2.966,8.463,0,12.818,4.673,12.818,13.533,0,16.208-17,14.456-17,25.457,0,3.955,1.708,5.379,4.477,5.379s4.476-1.424,4.476-5.379v-3.678h8.53Z" transform="translate(1 2)" fill="#fff"/>
  </g>
</svg>
