<svg xmlns="http://www.w3.org/2000/svg" width="34.048" height="34.049" viewBox="0 0 34.048 34.049">
  <g id="logo_issho_symbol" transform="translate(-7 206.896)">
    <path id="Path_378" data-name="Path 378" d="M68.744-163.844c0-1.621-.715-2.238-1.85-2.238s-1.85.616-1.85,2.238v1.3h-3.5v-1.288c0-1.621-.592-2.238-1.727-2.238s-1.756.616-1.756,2.238c0,3.192,3.27,3.794,5.333,5.925C65.457-160.048,68.744-160.644,68.744-163.844Z" transform="translate(-39.155 -31.296)" fill="#20c99f"/>
    <path id="Path_379" data-name="Path 379" d="M22.3-206.9A15.23,15.23,0,0,0,7-191.841v3.927a15.24,15.24,0,0,0,15.3,15.066h3.927a14.833,14.833,0,0,0,14.821-15.066V-206.9Zm11.053,22.037c0,3.633-1.865,5.709-5.368,5.709a5.42,5.42,0,0,1-3.688-1.193,5.521,5.521,0,0,1-3.747,1.208c-3.5,0-5.386-2.076-5.386-5.709v-1.3h3.265v1.524c0,1.622.822,2.206,1.958,2.206s1.9-.584,1.9-2.206c0-4.512-6.947-3.793-6.947-10.44,0-3.633,1.8-5.55,5.268-5.55a5.26,5.26,0,0,1,3.639,1.2,5.238,5.238,0,0,1,3.651-1.216c3.471,0,5.257,1.916,5.257,5.55,0,6.647-6.973,5.928-6.973,10.44,0,1.622.7,2.206,1.836,2.206s1.836-.584,1.836-2.206v-1.508h3.5Z" transform="translate(0)" fill="#20c99f"/>
  </g>
</svg>
