<svg xmlns="http://www.w3.org/2000/svg" width="13.125" height="10.5" viewBox="0 0 13.125 10.5"><defs><style>.a{fill:#fff;}</style></defs><g transform="translate(0 -10)"><g transform="translate(0 10)"><path class="a" d="M6.563,13.938a1.969,1.969,0,1,0,1.969,1.969A1.969,1.969,0,0,0,6.563,13.938Zm5.25-1.969H10.237a.584.584,0,0,1-.518-.374l-.407-1.222A.585.585,0,0,0,8.794,10H4.331a.584.584,0,0,0-.518.374L3.406,11.6a.585.585,0,0,1-.518.373H1.313A1.316,1.316,0,0,0,0,13.281v5.906A1.316,1.316,0,0,0,1.313,20.5h10.5a1.316,1.316,0,0,0,1.313-1.312V13.281A1.316,1.316,0,0,0,11.813,11.969Zm-5.25,7.219a3.281,3.281,0,1,1,3.281-3.281A3.281,3.281,0,0,1,6.563,19.188ZM11.353,14.2a.459.459,0,1,1,.459-.459A.459.459,0,0,1,11.353,14.2Z" transform="translate(0 -10)"/></g></g></svg>