<svg xmlns="http://www.w3.org/2000/svg" width="20.5" height="20.5" viewBox="0 0 20.5 20.5"><defs><style>.a{fill:#20c99f;fill-rule:evenodd;}</style></defs><g transform="translate(-0.003 0)"><g transform="translate(0.003 0)"><path class="a" d="M20.438,9.112a.667.667,0,0,0-.659-.5A2.263,2.263,0,0,1,18.23,4.668a.569.569,0,0,0,.062-.773,10.143,10.143,0,0,0-1.624-1.64.57.57,0,0,0-.779.063,2.362,2.362,0,0,1-2.556.574A2.277,2.277,0,0,1,11.949.667a.569.569,0,0,0-.5-.6A10.233,10.233,0,0,0,9.14.062a.57.57,0,0,0-.508.586,2.281,2.281,0,0,1-1.4,2.187,2.369,2.369,0,0,1-2.537-.578.572.572,0,0,0-.774-.065A10.181,10.181,0,0,0,2.259,3.832a.57.57,0,0,0,.061.779,2.271,2.271,0,0,1,.573,2.557A2.37,2.37,0,0,1,.663,8.554a.557.557,0,0,0-.592.5,10.268,10.268,0,0,0,0,2.331.678.678,0,0,0,.672.5,2.248,2.248,0,0,1,2.109,1.4,2.279,2.279,0,0,1-.573,2.535.57.57,0,0,0-.062.772,10.18,10.18,0,0,0,1.622,1.641.57.57,0,0,0,.78-.062,2.359,2.359,0,0,1,2.555-.575,2.273,2.273,0,0,1,1.387,2.225.569.569,0,0,0,.5.6,10.2,10.2,0,0,0,2.306.006.57.57,0,0,0,.507-.587,2.278,2.278,0,0,1,1.4-2.186,2.365,2.365,0,0,1,2.539.578.573.573,0,0,0,.774.065,10.2,10.2,0,0,0,1.658-1.639.569.569,0,0,0-.061-.779,2.271,2.271,0,0,1-.574-2.557,2.3,2.3,0,0,1,2.1-1.389l.127,0a.571.571,0,0,0,.6-.5A10.259,10.259,0,0,0,20.438,9.112ZM10.269,13.691a3.419,3.419,0,1,1,3.419-3.419A3.423,3.423,0,0,1,10.269,13.691Z" transform="translate(-0.003 0)"/></g></g></svg>