<svg xmlns="http://www.w3.org/2000/svg" width="53.837" height="37.686" viewBox="0 0 53.837 37.686"><defs><style>.a{fill:#20c99f;}</style></defs><path class="a" d="M16.151,50.843A9.422,9.422,0,1,0,6.73,41.422,9.417,9.417,0,0,0,16.151,50.843Zm6.46,2.692h-.7a13.008,13.008,0,0,1-11.525,0h-.7A9.693,9.693,0,0,0,0,63.226v2.423a4.039,4.039,0,0,0,4.038,4.038H28.265A4.039,4.039,0,0,0,32.3,65.648V63.226A9.693,9.693,0,0,0,22.612,53.535Zm17.766-2.692A8.076,8.076,0,1,0,32.3,42.767,8.078,8.078,0,0,0,40.378,50.843Zm4.038,2.692H44.1a10.608,10.608,0,0,1-7.436,0h-.32a9.343,9.343,0,0,0-4.686,1.3,12.311,12.311,0,0,1,3.34,8.4v3.23c0,.185-.042.362-.05.538H49.8a4.039,4.039,0,0,0,4.038-4.038A9.417,9.417,0,0,0,44.416,53.535Z" transform="translate(0 -32)"/></svg>