<svg xmlns="http://www.w3.org/2000/svg" width="14.875" height="17" viewBox="0 0 14.875 17"><defs><style>.a{fill:#fff;}</style></defs><path class="a" d="M13.281,2.125H11.688V.4a.4.4,0,0,0-.4-.4H9.961a.4.4,0,0,0-.4.4V2.125H5.313V.4a.4.4,0,0,0-.4-.4H3.586a.4.4,0,0,0-.4.4V2.125H1.594A1.594,1.594,0,0,0,0,3.719V15.406A1.594,1.594,0,0,0,1.594,17H13.281a1.594,1.594,0,0,0,1.594-1.594V3.719A1.594,1.594,0,0,0,13.281,2.125Zm-.2,13.281H1.793a.2.2,0,0,1-.2-.2V5.313H13.281v9.895A.2.2,0,0,1,13.082,15.406Z"/></svg>