<svg xmlns="http://www.w3.org/2000/svg" width="13.125" height="17.5" viewBox="0 0 13.125 17.5"><defs><style>.a{fill:#fff;}</style></defs><path class="a" d="M4.1,2.461A2.461,2.461,0,1,1,6.563,4.922,2.461,2.461,0,0,1,4.1,2.461Zm8.7.047a1.094,1.094,0,0,0-1.547,0L8.3,5.469H4.828L1.867,2.508A1.094,1.094,0,1,0,.321,4.055L3.555,7.289v9.117A1.094,1.094,0,0,0,4.649,17.5H5.2a1.094,1.094,0,0,0,1.094-1.094V12.578h.547v3.828A1.094,1.094,0,0,0,7.93,17.5h.547a1.094,1.094,0,0,0,1.094-1.094V7.289L12.8,4.055A1.094,1.094,0,0,0,12.8,2.508Z" transform="translate(0)"/></svg>