<svg xmlns="http://www.w3.org/2000/svg" width="14" height="14.625" viewBox="0 0 14 14.625"><defs><style>.a{fill:#fff;}</style></defs><path class="a" d="M32.465,17.169l-1.256-.725a5.679,5.679,0,0,0,0-2.07l1.256-.725a.356.356,0,0,0,.162-.413,7.343,7.343,0,0,0-1.613-2.789.355.355,0,0,0-.436-.068l-1.256.725a5.564,5.564,0,0,0-1.793-1.035V8.621a.353.353,0,0,0-.277-.345,7.412,7.412,0,0,0-3.22,0,.353.353,0,0,0-.277.345v1.451a5.74,5.74,0,0,0-1.793,1.035l-1.253-.725a.35.35,0,0,0-.436.068,7.3,7.3,0,0,0-1.613,2.789.353.353,0,0,0,.162.413l1.256.725a5.679,5.679,0,0,0,0,2.07l-1.256.725a.356.356,0,0,0-.162.413,7.343,7.343,0,0,0,1.613,2.789.355.355,0,0,0,.436.068l1.256-.725a5.565,5.565,0,0,0,1.793,1.035V22.2a.353.353,0,0,0,.277.345,7.412,7.412,0,0,0,3.22,0,.353.353,0,0,0,.277-.345V20.751a5.74,5.74,0,0,0,1.793-1.035l1.256.725a.35.35,0,0,0,.436-.068,7.3,7.3,0,0,0,1.613-2.789A.364.364,0,0,0,32.465,17.169Zm-6.823.6A2.359,2.359,0,1,1,28,15.408,2.362,2.362,0,0,1,25.642,17.767Z" transform="translate(-18.644 -8.099)"/></svg>