<svg xmlns="http://www.w3.org/2000/svg" width="17" height="13.222" viewBox="0 0 17 13.222"><defs><style>.a{fill:#fff;}</style></defs><path class="a" d="M14.167,43.333v.472a1.417,1.417,0,0,1-1.417,1.417H1.417A1.417,1.417,0,0,1,0,43.806V36.25a1.417,1.417,0,0,1,1.417-1.417h.472v6.139A2.364,2.364,0,0,0,4.25,43.333ZM17,40.972V33.417A1.417,1.417,0,0,0,15.583,32H4.25a1.417,1.417,0,0,0-1.417,1.417v7.556A1.417,1.417,0,0,0,4.25,42.389H15.583A1.417,1.417,0,0,0,17,40.972ZM7.556,34.833a1.417,1.417,0,1,1-1.417-1.417A1.417,1.417,0,0,1,7.556,34.833Zm-2.833,4.25,1.638-1.638a.354.354,0,0,1,.5,0l1.166,1.166,4-4a.354.354,0,0,1,.5,0l2.583,2.583V40.5H4.722Z" transform="translate(0 -32)"/></svg>