<svg xmlns="http://www.w3.org/2000/svg" width="18.003" height="14.628" viewBox="0 0 18.003 14.628"><defs><style>.a{fill:#fff;}</style></defs><path class="a" d="M3.376,49.688A1.688,1.688,0,1,1,1.688,48,1.688,1.688,0,0,1,3.376,49.688ZM1.688,53.626a1.688,1.688,0,1,0,1.688,1.688A1.688,1.688,0,0,0,1.688,53.626Zm0,5.626A1.688,1.688,0,1,0,3.376,60.94,1.688,1.688,0,0,0,1.688,59.252Zm3.376-8.3H17.441A.563.563,0,0,0,18,50.391V48.985a.563.563,0,0,0-.563-.563H5.063a.563.563,0,0,0-.563.563v1.407A.563.563,0,0,0,5.063,50.954Zm0,5.626H17.441A.563.563,0,0,0,18,56.017V54.611a.563.563,0,0,0-.563-.563H5.063a.563.563,0,0,0-.563.563v1.407A.563.563,0,0,0,5.063,56.58Zm0,5.626H17.441A.563.563,0,0,0,18,61.643V60.237a.563.563,0,0,0-.563-.563H5.063a.563.563,0,0,0-.563.563v1.407A.563.563,0,0,0,5.063,62.206Z" transform="translate(0 -48)"/></svg>