<svg xmlns="http://www.w3.org/2000/svg" width="17.123" height="13.699" viewBox="0 0 17.123 13.699"><defs><style>.a{fill:#fff;}</style></defs><path class="a" d="M0,5.993V13.27a.428.428,0,0,0,.428.428h2.14V5.137H.856A.856.856,0,0,0,0,5.993ZM9.632,4.709H8.99V3.639a.214.214,0,0,0-.214-.214H8.348a.214.214,0,0,0-.214.214V5.351a.214.214,0,0,0,.214.214H9.632a.214.214,0,0,0,.214-.214V4.923A.214.214,0,0,0,9.632,4.709ZM13.317,3,9.037.144a.857.857,0,0,0-.95,0L3.806,3a.856.856,0,0,0-.381.712V13.7H6.849V9.846a.428.428,0,0,1,.428-.428H9.846a.428.428,0,0,1,.428.428V13.7H13.7V3.71A.856.856,0,0,0,13.317,3ZM8.562,6.849a2.14,2.14,0,1,1,2.14-2.14A2.14,2.14,0,0,1,8.562,6.849Zm7.705-1.712H14.555V13.7H16.7a.428.428,0,0,0,.428-.428V5.993A.856.856,0,0,0,16.267,5.137Z" transform="translate(0 0)"/></svg>