<svg xmlns="http://www.w3.org/2000/svg" width="17" height="12.955" viewBox="0 0 17 12.955"><defs><style>.a{fill:#fff;}</style></defs><path class="a" d="M16.765,71.029,11.1,76.7a.811.811,0,0,1-1.383-.573V72.885H5.127a.808.808,0,0,1-.81-.81V68.837a.808.808,0,0,1,.81-.81H9.715V64.789a.811.811,0,0,1,1.383-.573l5.667,5.667A.816.816,0,0,1,16.765,71.029Zm-10.288,5.5V75.178a.406.406,0,0,0-.4-.4H3.238a1.078,1.078,0,0,1-1.079-1.079V67.218a1.078,1.078,0,0,1,1.079-1.079H6.072a.406.406,0,0,0,.4-.4V64.384a.406.406,0,0,0-.4-.4H3.238A3.239,3.239,0,0,0,0,67.218v6.477a3.239,3.239,0,0,0,3.238,3.238H6.072A.406.406,0,0,0,6.477,76.528Z" transform="translate(0 -63.979)"/></svg>