<svg xmlns="http://www.w3.org/2000/svg" width="18.123" height="12.686" viewBox="0 0 18.123 12.686"><defs><style>.a{fill:#fff;}</style></defs><path class="a" d="M5.437,38.343a3.172,3.172,0,1,0-3.172-3.172A3.17,3.17,0,0,0,5.437,38.343Zm2.175.906H7.377a4.379,4.379,0,0,1-3.879,0H3.262A3.263,3.263,0,0,0,0,42.511v.816a1.36,1.36,0,0,0,1.359,1.359H9.515a1.36,1.36,0,0,0,1.359-1.359v-.816A3.263,3.263,0,0,0,7.612,39.249Zm5.981-.906a2.718,2.718,0,1,0-2.718-2.718A2.719,2.719,0,0,0,13.592,38.343Zm1.359.906h-.108a3.571,3.571,0,0,1-2.5,0h-.108a3.145,3.145,0,0,0-1.577.436,4.144,4.144,0,0,1,1.124,2.826V43.6c0,.062-.014.122-.017.181h5a1.36,1.36,0,0,0,1.359-1.359A3.17,3.17,0,0,0,14.952,39.249Z" transform="translate(0 -32)"/></svg>